:SAMPLES-PER-SECOND 30
:FULLY-SPECIFIED
:DEGREES
724
root  -13.5665 37.7371 -2.32209 -14.3267 -82.7989 4.41612
RightUpLeg  -18.7022 -6.65529 -1.5475
RightLeg  14.1465 -0.149394 0.0706646
RightFoot  5.40154 0.181746 -1.06568
RightToes  4.6566e-010 0 -3.6325e-017
Spine  2.74437 -2.74823 1.62748
Spine1  11.9826 -3.2284 1.11269
HEad  -10.7119 1.03386 -7.08914
LeftShoulder1  0.232506 2.81861 -27.7567
LeftArm  -5.85329 -6.35205 -30.5416
LeftForeArm  18.1609 -75.3142 -51.0575
LeftHand  -0.00100938 4.13161 -2.22124
RightShoulder  -0.43044 -4.86808 24.6485
RightArm  -5.15383 2.50648 27.8371
RightForeArm  56.1894 77.8068 101.969
RightHand  -0.0444196 0.87087 -0.918527
LeftUpLeg  24.6581 3.27684 -0.653998
LeftLeg  19.3165 -7.79979 -2.70895
LeftFoot  -20.458 0.273481 1.94405
LeftToes  -4.59298e-010 2.08438e-011 -1.27151e-011
725
root  -15.2869 37.5413 -2.38922 -1.96808 -83.408 -7.41772
RightUpLeg  -20.3682 -6.62557 0.372418
RightLeg  20.8197 1.47397 0.373811
RightFoot  4.28564 0.0623306 -0.264274
RightToes  4.6566e-010 0 -3.6325e-017
Spine  1.90657 -2.82916 5.01584
Spine1  12.2038 -2.84471 0.0260071
HEad  -11.609 2.12993 -7.90161
LeftShoulder1  0.223103 2.86175 -28.6399
LeftArm  -5.2459 -4.86015 -30.6021
LeftForeArm  16.6251 -74.9427 -49.2129
LeftHand  0.00783526 3.94202 -2.61629
RightShoulder  -0.445139 -4.90787 24.8146
RightArm  -4.40455 1.99413 28.0929
RightForeArm  51.0751 77.926 97.84
RightHand  -0.0545424 1.20957 -1.07885
LeftUpLeg  23.784 3.57554 2.04643
LeftLeg  25.1482 -8.82478 -4.20891
LeftFoot  -18.5666 -0.0201707 -2.26189
LeftToes  -4.59298e-010 2.08438e-011 -1.27151e-011
726
root  -16.8256 37.4661 -2.51286 7.51764 -83.1719 -16.4667
RightUpLeg  -21.042 -7.36228 1.98259
RightLeg  25.7001 1.97346 0.795032
RightFoot  2.39371 0.3555 -2.82887
RightToes  4.6566e-010 0 -3.6325e-017
Spine  2.05326 -3.09893 6.95679
Spine1  12.0408 -2.87276 0.530383
HEad  -11.5294 2.6044 -7.97951
LeftShoulder1  0.173426 3.01612 -29.4106
LeftArm  -4.75303 -4.0202 -30.5598
LeftForeArm  15.1387 -74.4803 -47.0815
LeftHand  0.013396 3.83514 -3.29135
RightShoulder  -0.460011 -4.9441 25.07
RightArm  -3.76078 1.88225 27.8908
RightForeArm  47.1647 78.0369 93.3043
RightHand  -0.0374607 1.07678 -0.780545
LeftUpLeg  20.3996 3.87957 4.77507
LeftLeg  34.0705 -9.71076 -6.62566
LeftFoot  -12.3676 0.0298544 -7.45049
LeftToes  -4.59298e-010 2.08438e-011 -1.27151e-011
727
root  -18.2083 37.4428 -2.726 13.459 -81.6057 -21.7576
RightUpLeg  -21.1449 -8.3207 3.49106
RightLeg  29.0229 1.32482 0.552134
RightFoot  -0.612268 0.380904 -4.06482
RightToes  4.6566e-010 0 -3.6325e-017
Spine  2.3903 -3.59591 7.85539
Spine1  11.6851 -3.36745 1.77177
HEad  -11.9047 2.26115 -7.6058
LeftShoulder1  0.1765 3.00823 -29.4793
LeftArm  -4.29129 -4.43925 -30.8142
LeftForeArm  12.2696 -73.6635 -43.9042
LeftHand  0.0107384 3.62517 -2.9477
RightShoulder  -0.398383 -4.75525 24.8814
RightArm  -3.46167 1.45403 27.9766
RightForeArm  45.9889 78.0988 90.6872
RightHand  -0.00929685 0.981059 -0.27263
LeftUpLeg  13.8133 2.35323 6.56535
LeftLeg  45.1915 -7.36213 -7.39635
LeftFoot  -0.674587 0.952 -10.4287
LeftToes  -4.59298e-010 2.08438e-011 -1.27151e-011
728
root  -19.4471 37.431 -2.88446 19.8707 -79.6219 -28.2278
RightUpLeg  -20.0072 -9.22912 5.34188
RightLeg  31.0067 0.604597 0.138704
RightFoot  -3.53542 0.26254 -4.19337
RightToes  4.6566e-010 0 -3.6325e-017
Spine  3.68609 -4.0118 10.2167
Spine1  11.2426 -3.43219 2.09413
HEad  -12.5361 1.80507 -7.17059
LeftShoulder1  0.243269 2.81872 -29.4099
LeftArm  -3.09566 -6.25934 -31.0425
LeftForeArm  9.53297 -72.6926 -40.6785
LeftHand  0.00554271 3.81997 -3.04665
RightShoulder  -0.384562 -4.71743 24.7114
RightArm  -3.93802 1.18256 27.7976
RightForeArm  44.7534 78.1068 89.156
RightHand  0.0261448 1.25169 0.356234
LeftUpLeg  6.70332 0.135337 8.23688
LeftLeg  55.6015 -4.26973 -6.22742
LeftFoot  12.187 1.86938 -9.38746
LeftToes  -4.59298e-010 2.08438e-011 -1.27151e-011
729
root  -20.6815 37.5581 -2.99896 21.084 -78.4059 -29.7333
RightUpLeg  -17.8863 -10.0779 6.22552
RightLeg  31.7215 0.267198 -0.0823715
RightFoot  -5.88877 0.169648 -4.39473
RightToes  4.6566e-010 0 -3.6325e-017
Spine  4.60083 -4.27146 11.814
Spine1  11.2496 -3.27845 1.83756
HEad  -12.8716 0.823044 -6.48271
LeftShoulder1  0.311242 2.62116 -29.128
LeftArm  -2.02246 -8.05755 -31.3531
LeftForeArm  5.86256 -71.407 -37.219
LeftHand  0.00492959 3.49803 -2.68818
RightShoulder  -0.380893 -4.70596 24.6986
RightArm  -4.0047 2.03481 27.8753
RightForeArm  39.0469 78.0275 83.5734
RightHand  -0.0654004 1.60065 -1.25972
LeftUpLeg  0.920426 -1.36896 8.88623
LeftLeg  62.6245 -2.78706 -5.2738
LeftFoot  13.8594 1.38782 -6.47021
LeftToes  -4.59298e-010 2.08438e-011 -1.27151e-011
730
root  -21.9644 37.8893 -3.14281 19.6833 -78.6044 -28.3009
RightUpLeg  -15.1103 -10.6458 6.09207
RightLeg  30.7602 0.740174 0.218496
RightFoot  -7.55858 0.0999084 -4.5589
RightToes  4.6566e-010 0 -3.6325e-017
Spine  5.34868 -3.99033 11.7783
Spine1  10.3703 -2.84078 1.38505
HEad  -12.4281 0.666489 -5.64372
LeftShoulder1  0.321793 2.59252 -29.2157
LeftArm  -1.17731 -9.42856 -31.5883
LeftForeArm  1.92793 -69.8174 -33.7371
LeftHand  0.0066569 2.89328 -1.47408
RightShoulder  -0.411436 -4.787 25.1312
RightArm  -2.8683 3.87213 27.8097
RightForeArm  28.4429 77.5925 73.7694
RightHand  -0.145599 2.34391 -2.3257
LeftUpLeg  -4.57362 -2.09396 8.13031
LeftLeg  66.2647 -2.2789 -5.00784
LeftFoot  8.96147 0.694202 -4.24296
LeftToes  -4.59298e-010 2.08438e-011 -1.27151e-011
731
root  -23.2642 38.2529 -3.2676 16.9597 -79.54 -25.1727
RightUpLeg  -12.4265 -10.685 5.37895
RightLeg  29.2984 1.35835 0.563857
RightFoot  -8.99397 0.033304 -4.59233
RightToes  4.6566e-010 0 -3.6325e-017
Spine  4.8341 -3.39694 11.2015
Spine1  10.5262 -2.16488 0.808008
HEad  -11.397 0.715744 -4.96602
LeftShoulder1  0.386703 2.39406 -28.706
LeftArm  -0.791738 -10.5712 -32.1074
LeftForeArm  -1.05369 -67.9577 -30.281
LeftHand  0.0127829 2.94566 -1.38314
RightShoulder  -0.403992 -4.75521 25.3209
RightArm  -1.25061 5.79106 28.645
RightForeArm  14.7823 76.5678 62.9738
RightHand  -0.316793 2.78363 -4.7949
LeftUpLeg  -9.50993 -2.27236 6.77972
LeftLeg  66.0647 -2.39427 -5.23551
LeftFoot  6.51625 0.591454 -3.9977
LeftToes  -4.59298e-010 2.08438e-011 -1.27151e-011
732
root  -24.5482 38.6069 -3.35973 15.02 -80.9524 -23.0429
RightUpLeg  -9.34854 -10.7962 4.55502
RightLeg  27.3986 2.57197 1.23261
RightFoot  -9.98835 -0.0116189 -4.72673
RightToes  4.6566e-010 0 -3.6325e-017
Spine  5.01944 -2.67802 10.6662
Spine1  9.81298 -1.41755 0.428783
HEad  -10.3904 0.476212 -4.78143
LeftShoulder1  0.388737 2.39984 -29.0957
LeftArm  -0.532249 -11.6823 -32.0085
LeftForeArm  -3.05696 -66.2656 -27.663
LeftHand  0.0271964 2.73374 -1.89404
RightShoulder  -0.341276 -4.57893 24.6922
RightArm  -1.19221 7.32901 29.6129
RightForeArm  9.99651 75.33 53.5658
RightHand  -0.182588 4.12564 -2.47787
LeftUpLeg  -13.3306 -2.00892 5.52463
LeftLeg  62.9605 -2.77075 -5.27126
LeftFoot  3.87644 0.317041 -2.55273
LeftToes  -4.59298e-010 2.08438e-011 -1.27151e-011
733
root  -25.8819 38.9606 -3.45869 12.0721 -82.5453 -20.1903
RightUpLeg  -5.56819 -10.4493 3.49379
RightLeg  24.8522 3.50837 1.86169
RightFoot  -10.8448 -0.0523724 -4.73437
RightToes  4.6566e-010 0 -3.6325e-017
Spine  4.847 -1.9699 9.96246
Spine1  9.62111 -0.646635 -0.448688
HEad  -10.0477 0.516449 -5.21635
LeftShoulder1  0.368285 2.46234 -29.2429
LeftArm  -0.365668 -12.8627 -31.8677
LeftForeArm  -4.50976 -64.8919 -25.8298
LeftHand  0.0124323 3.01897 -1.47211
RightShoulder  -0.284616 -4.39703 24.6392
RightArm  -0.344777 9.3251 30.8072
RightForeArm  2.50213 73.4979 45.2513
RightHand  -0.190143 4.47498 -2.52125
LeftUpLeg  -15.6032 -1.70932 4.32528
LeftLeg  56.7834 -3.7033 -5.57937
LeftFoot  1.0083 0.199147 -1.90884
LeftToes  -4.59298e-010 2.08438e-011 -1.27151e-011
734
root  -27.1726 39.2059 -3.53919 8.4502 -83.7427 -16.4453
RightUpLeg  -2.26708 -9.60877 2.61243
RightLeg  22.4943 3.82865 2.2003
RightFoot  -11.8543 -0.100634 -4.5639
RightToes  4.6566e-010 0 -3.6325e-017
Spine  4.511 -1.46069 9.27691
Spine1  9.37384 -0.161957 -1.20401
HEad  -9.7338 1.08557 -5.29092
LeftShoulder1  0.401102 2.35885 -28.9108
LeftArm  -0.729184 -13.5286 -31.7664
LeftForeArm  -5.01136 -63.9231 -24.6361
LeftHand  0.0103498 2.92681 -1.283
RightShoulder  -0.229407 -4.22584 24.349
RightArm  0.147772 11.2342 32.4749
RightForeArm  -2.5796 71.5474 39.0249
RightHand  -0.173983 5.01646 -2.24733
LeftUpLeg  -17.4576 -1.32758 3.36224
LeftLeg  48.4606 -4.27998 -4.78383
LeftFoot  -0.270211 0.135997 -1.3864
LeftToes  -4.59298e-010 2.08438e-011 -1.27151e-011
